<svg xmlns="http://www.w3.org/2000/svg" xmlns:xlink="http://www.w3.org/1999/xlink" viewBox="0 0 430.76 230.59"><defs><style>.cls-1{fill:url(#linear-gradient);}.cls-2{fill:#f79868;}.cls-3{fill:url(#linear-gradient-2);}.cls-4{fill:#ededed;}.cls-5{fill:#dcdbdb;}</style><linearGradient id="linear-gradient" x1="155.34" y1="51.27" x2="276.19" y2="21.56" gradientUnits="userSpaceOnUse"><stop offset="0" stop-color="#302f81"/><stop offset="0.46" stop-color="#44438e"/><stop offset="1" stop-color="#5459a7"/></linearGradient><linearGradient id="linear-gradient-2" x1="301.83" y1="156.81" x2="430.76" y2="156.81" xlink:href="#linear-gradient"/></defs><g id="Layer_2" data-name="Layer 2"><g id="Layer_1-2" data-name="Layer 1"><path class="cls-1" d="M175.3,38.8h32.83V88.7H175.3ZM158.88,0V32.83h65.66V0Z"/><path class="cls-2" d="M228.23,38.81a55.5,55.5,0,0,1-8.12,8.8,53,53,0,0,1-6,4.55V88.7A85.52,85.52,0,0,0,230,81a88.35,88.35,0,0,0,16.43-13.06A89.08,89.08,0,0,0,262.8,45c1-2,1.92-4.06,2.76-6.14ZM239.06,0c0,9.73-2.54,24.88-7,32.82h35.6c2.72-8.44,4.18-23.47,4.18-32.82Z"/><path class="cls-3" d="M336.8,180.91A22.16,22.16,0,0,1,322,186a27.9,27.9,0,0,1-20.14-8.09l5.15-7c4.68,4.28,9.68,6.42,14.91,6.42a11.74,11.74,0,0,0,8.09-2.85,9.21,9.21,0,0,0,3.33-7.3c0-5.78-4.52-9.91-11.58-9.91H306.27V128.74h33.3v8.56h-24v11.58h6.74c13.32,0,20.61,7,20.61,18C342.9,172.82,340.84,177.5,336.8,180.91ZM369,158.15c4.68-4.83,7.14-8.4,7.14-12.76a8.88,8.88,0,0,0-9.2-9c-4.68,0-9.2,2.62-13.72,7.77l-6.5-5.71c5.63-7.21,12.53-10.78,20.85-10.78a19,19,0,0,1,13.17,4.67A15.72,15.72,0,0,1,386,144.67c0,6-2.7,11.11-9.75,18.48l-12.77,13.32h23.08V185h-40.6v-2.77Zm21.65-20.85v-8.56h40.12v2.69L405.07,185H394.68l23.23-47.73Z"/><path class="cls-4" d="M17.32,133.86H0v-9.48H44.88v9.48H27.64V185H17.32Z"/><path class="cls-4" d="M49.57,182.15c-3-2.56-4.52-6.06-4.52-10.58a12.33,12.33,0,0,1,5.21-10.41c3.49-2.65,7.93-4,13.3-4a18,18,0,0,1,10.67,3.24v-3.24c0-7.08-3.16-9.81-9.64-9.81a24.86,24.86,0,0,0-13.4,4.26l-3.84-7.68a33.15,33.15,0,0,1,18.18-5.54c6.82,0,11.77,1.7,14.93,5.2C83,146.4,84.3,151,84.3,157.23V185h-9L75,179.67c-3.33,4.18-8,6.23-14.17,6.23A17.43,17.43,0,0,1,49.57,182.15Zm24.66-10.58V170c-.94-3.16-4.61-5.54-9.81-5.54a12,12,0,0,0-6.66,2A5.58,5.58,0,0,0,55,171.23c0,4.18,4,6.91,9.38,6.91C70.48,178.14,74.23,174.64,74.23,171.57Z"/><path class="cls-4" d="M97,185V115.77h10.16V185Z"/><path class="cls-4" d="M124.32,179.33a22.81,22.81,0,0,1-6.92-17.06,23.18,23.18,0,0,1,6.74-16.9,22.19,22.19,0,0,1,16.64-7q9.6,0,15.62,6.14c3.84,4,5.8,9.39,5.8,16a24.65,24.65,0,0,1-.43,5h-34.3c1.28,7.43,7.08,11.52,14.51,11.52a20.71,20.71,0,0,0,13.14-5l5.46,6.4A26.61,26.61,0,0,1,141.47,186,23.73,23.73,0,0,1,124.32,179.33Zm27.81-20.9a10.88,10.88,0,0,0-3.24-8,11.31,11.31,0,0,0-8.28-3.24,13.17,13.17,0,0,0-13.14,11.26Z"/><path class="cls-4" d="M172.44,139.4h9.13l.17,5.46a17,17,0,0,1,14-6.48c5.2,0,9.3,1.7,12.29,5s4.52,7.94,4.52,13.65V185H202.38V158c0-6.14-3.58-10.49-9.72-10.49s-10.07,4.35-10.07,10.41v27H172.44Z"/><path class="cls-4" d="M231.23,181.81c-2.82-2.65-4.27-6.4-4.27-11.1V148.36h-7.51v-8.87l2.22-.09c4.35-.25,5.8-1.79,5.8-6.82V127.2h9.64v12.2h12.8v9h-12.8v20.56c0,5,2.73,7.6,8.11,7.6a44.16,44.16,0,0,0,4.86-.26v8.28a26.09,26.09,0,0,1-7.17,1C237.79,185.56,233.87,184.28,231.23,181.81Z"/><path class="cls-4" d="M285.66,182.23c-3.16,2.48-7.17,3.76-12.11,3.76a28.56,28.56,0,0,1-18.43-6.32l4.77-7.34a23.16,23.16,0,0,0,13.91,4.87c4.18,0,6.31-1.45,6.31-4.35,0-2.14-2.13-4.1-6.31-5.89l-5.46-2.3q-11.26-4.74-11.26-13.57a11.35,11.35,0,0,1,4.26-9c2.91-2.48,6.74-3.67,11.52-3.67a24.69,24.69,0,0,1,16,5.29l-5,7.25a17.71,17.71,0,0,0-11.09-3.84c-3.76,0-5.8,1.54-5.8,3.92,0,2.05,1.87,3.84,5.54,5.38l5.46,2.3c8.11,3.42,12.37,7.26,12.37,13.83A11.94,11.94,0,0,1,285.66,182.23Z"/><path class="cls-5" d="M43.86,226.5a1.56,1.56,0,0,1,0-2.13A1.5,1.5,0,1,1,46,226.5,1.51,1.51,0,0,1,43.86,226.5Zm7.48-1.07a1.5,1.5,0,1,1-1.5-1.49A1.48,1.48,0,0,1,51.34,225.43Zm2.33,1.07a1.51,1.51,0,0,1,2.14-2.13,1.51,1.51,0,1,1-2.14,2.13Z"/><path class="cls-5" d="M59,225.69a4.36,4.36,0,0,1-1.3-3.25,5.13,5.13,0,0,1,1.51-3.75A5,5,0,0,1,63,217.14a4.32,4.32,0,0,1,3.74,2l-1.53,1.21a2.8,2.8,0,0,0-4.51-.35,3.32,3.32,0,0,0-.86,2.3A2.55,2.55,0,0,0,62.53,225a3.27,3.27,0,0,0,2.39-1.19l1.24,1.42a4.85,4.85,0,0,1-3.86,1.67A4.54,4.54,0,0,1,59,225.69Z"/><path class="cls-5" d="M68.5,225.67a4.31,4.31,0,0,1-1.32-3.26,5,5,0,0,1,1.55-3.74,5.14,5.14,0,0,1,3.77-1.53,4.62,4.62,0,0,1,3.34,1.28,4.25,4.25,0,0,1,1.33,3.25,5.06,5.06,0,0,1-1.56,3.76,5.27,5.27,0,0,1-3.79,1.51A4.57,4.57,0,0,1,68.5,225.67Zm5.71-1.56a3.24,3.24,0,0,0,.86-2.32,2.74,2.74,0,0,0-.76-2,2.59,2.59,0,0,0-2-.79,2.82,2.82,0,0,0-2.21,1,3.4,3.4,0,0,0-.88,2.34A2.54,2.54,0,0,0,72,225,2.91,2.91,0,0,0,74.21,224.11Z"/><path class="cls-5" d="M79.88,217.35h1.87l-.08,1a3.8,3.8,0,0,1,2.74-1.14,3.09,3.09,0,0,1,2.3.89,3.15,3.15,0,0,1,.9,2.34,7.1,7.1,0,0,1-.11,1l-.82,5.31H84.59l.81-5.2a3.68,3.68,0,0,0,.07-.7,1.67,1.67,0,0,0-1.8-1.79,2.17,2.17,0,0,0-2.28,2l-.89,5.67H78.41Z"/><path class="cls-5" d="M90.51,217.35h1.86l-.07,1A3.78,3.78,0,0,1,95,217.16a3.09,3.09,0,0,1,2.3.89,3.15,3.15,0,0,1,.9,2.34,7.1,7.1,0,0,1-.11,1l-.83,5.31H95.21l.81-5.2a3.68,3.68,0,0,0,.07-.7A1.66,1.66,0,0,0,94.3,219a2.17,2.17,0,0,0-2.28,2l-.9,5.67H89Z"/><path class="cls-5" d="M101.12,225.73a4.29,4.29,0,0,1-1.3-3.23,5.28,5.28,0,0,1,1.51-3.8,5,5,0,0,1,3.7-1.56,4,4,0,0,1,4.18,4.2,5.48,5.48,0,0,1-.17,1.4h-7.13a2.51,2.51,0,0,0,2.69,2.35,4.75,4.75,0,0,0,2.73-1l1,1.32a5.35,5.35,0,0,1-3.91,1.49A4.68,4.68,0,0,1,101.12,225.73Zm6-4.46v-.2a2.12,2.12,0,0,0-2.25-2.12,3,3,0,0,0-2.9,2.32Z"/><path class="cls-5" d="M111.83,225.69a4.36,4.36,0,0,1-1.3-3.25,5.1,5.1,0,0,1,1.52-3.75,5,5,0,0,1,3.73-1.55,4.29,4.29,0,0,1,3.74,2L118,220.35a2.76,2.76,0,0,0-2.34-1.33,2.79,2.79,0,0,0-2.18,1,3.37,3.37,0,0,0-.86,2.3,2.55,2.55,0,0,0,2.73,2.74,3.23,3.23,0,0,0,2.38-1.19l1.25,1.42a4.85,4.85,0,0,1-3.86,1.67A4.59,4.59,0,0,1,111.83,225.69Z"/><path class="cls-5" d="M122,226.27a2.18,2.18,0,0,1-.91-2,5.39,5.39,0,0,1,.07-.78l.69-4.33h-1.55l.28-1.79.41,0c1-.05,1.3-.4,1.49-1.46l.19-1.07h1.95l-.4,2.51h2.65l-.28,1.83h-2.65l-.65,4.16a2.4,2.4,0,0,0-.06.47c0,.86.53,1.2,1.74,1.2h.72l-.28,1.72a4,4,0,0,1-1.11.12A4.25,4.25,0,0,1,122,226.27Z"/><path class="cls-5" d="M127.38,226.73l1.48-9.38H131l-1.48,9.38Zm2.07-11.91a1.35,1.35,0,0,1,0-1.93,1.39,1.39,0,0,1,2,0,1.32,1.32,0,0,1,0,1.93A1.41,1.41,0,0,1,129.45,214.82Z"/><path class="cls-5" d="M133.79,217.35h1.86l-.07,1a3.78,3.78,0,0,1,2.74-1.14,3.09,3.09,0,0,1,2.3.89,3.15,3.15,0,0,1,.9,2.34,7.1,7.1,0,0,1-.11,1l-.83,5.31H138.5l.8-5.2a3,3,0,0,0,.07-.7,1.66,1.66,0,0,0-1.79-1.79,2.17,2.17,0,0,0-2.28,2l-.89,5.67h-2.09Z"/><path class="cls-5" d="M144.52,218.67a4.76,4.76,0,0,1,3.6-1.51,3.61,3.61,0,0,1,3.29,1.65l.28-1.46h1.88l-1.39,8.8a4.77,4.77,0,0,1-5.13,4.44,7.82,7.82,0,0,1-4.51-1.56l.93-1.6a5.83,5.83,0,0,0,3.65,1.3,2.84,2.84,0,0,0,3-2.65l.09-.51a4.29,4.29,0,0,1-5.92-.09,4.43,4.43,0,0,1-1.16-3.14A5.17,5.17,0,0,1,144.52,218.67ZM150,224a3.3,3.3,0,0,0,.83-2.28,2.46,2.46,0,0,0-2.56-2.67,2.78,2.78,0,0,0-2.18.92,3.25,3.25,0,0,0-.83,2.26,2.53,2.53,0,0,0,2.6,2.69A2.67,2.67,0,0,0,150,224Z"/><path class="cls-5" d="M161.16,226.27a2.16,2.16,0,0,1-.92-2,5.39,5.39,0,0,1,.07-.78l.69-4.33h-1.55l.28-1.79.41,0c1-.05,1.3-.4,1.49-1.46l.19-1.07h2l-.4,2.51H166l-.28,1.83h-2.65l-.65,4.16a2.4,2.4,0,0,0-.06.47c0,.86.53,1.2,1.74,1.2h.72l-.28,1.72a3.89,3.89,0,0,1-1.1.12A4.2,4.2,0,0,1,161.16,226.27Z"/><path class="cls-5" d="M168.68,212.49h2.09l-.88,5.62a3.71,3.71,0,0,1,2.54-1,3.09,3.09,0,0,1,2.3.89,3.15,3.15,0,0,1,.9,2.34,7.1,7.1,0,0,1-.11,1l-.84,5.31h-2.09l.83-5.2a3.68,3.68,0,0,0,.07-.7A1.66,1.66,0,0,0,171.7,219a2.18,2.18,0,0,0-2.29,2l-.89,5.67h-2.09Z"/><path class="cls-5" d="M178.49,225.73a4.29,4.29,0,0,1-1.3-3.23,5.28,5.28,0,0,1,1.52-3.8,5,5,0,0,1,3.7-1.56,4,4,0,0,1,3,1.18,4.08,4.08,0,0,1,1.16,3,5.08,5.08,0,0,1-.18,1.4h-7.13a2.52,2.52,0,0,0,2.69,2.35,4.75,4.75,0,0,0,2.74-1l1,1.32a5.36,5.36,0,0,1-3.92,1.49A4.71,4.71,0,0,1,178.49,225.73Zm6-4.46v-.2a2.11,2.11,0,0,0-2.24-2.12,2.94,2.94,0,0,0-2.9,2.32Z"/><path class="cls-5" d="M193.64,225.66a4.62,4.62,0,0,1-1.16-3.22,5.31,5.31,0,0,1,1.42-3.72,4.58,4.58,0,0,1,3.53-1.56,3.73,3.73,0,0,1,3.23,1.53l1-6.2h2.09l-2.23,14.24h-1.88l.12-1.07a4,4,0,0,1-3.07,1.26A3.88,3.88,0,0,1,193.64,225.66Zm5.7-1.57a3.5,3.5,0,0,0,.83-2.35A2.48,2.48,0,0,0,197.6,219a2.71,2.71,0,0,0-2.17.95,3.4,3.4,0,0,0-.83,2.32,2.51,2.51,0,0,0,2.58,2.75A2.68,2.68,0,0,0,199.34,224.09Z"/><path class="cls-5" d="M205.49,225.67a4.34,4.34,0,0,1-1.31-3.26,5,5,0,0,1,1.54-3.74,5.18,5.18,0,0,1,3.78-1.53,4.59,4.59,0,0,1,3.33,1.28,4.26,4.26,0,0,1,1.34,3.25,5.09,5.09,0,0,1-1.56,3.76,5.28,5.28,0,0,1-3.8,1.51A4.59,4.59,0,0,1,205.49,225.67Zm5.71-1.56a3.24,3.24,0,0,0,.86-2.32,2.77,2.77,0,0,0-.75-2,2.6,2.6,0,0,0-1.95-.79,2.83,2.83,0,0,0-2.22,1,3.44,3.44,0,0,0-.87,2.34A2.54,2.54,0,0,0,209,225,2.91,2.91,0,0,0,211.2,224.11Z"/><path class="cls-5" d="M217,226.27a2.16,2.16,0,0,1-.92-2,5.39,5.39,0,0,1,.07-.78l.69-4.33h-1.55l.28-1.79.41,0c1-.05,1.3-.4,1.49-1.46l.19-1.07h1.95l-.4,2.51h2.65l-.28,1.83H219l-.65,4.16a2.4,2.4,0,0,0-.06.47c0,.86.53,1.2,1.74,1.2h.73l-.29,1.72a3.89,3.89,0,0,1-1.1.12A4.2,4.2,0,0,1,217,226.27Z"/><path class="cls-5" d="M228.33,220a4.48,4.48,0,0,0-2.59-1c-.7,0-1.22.35-1.22.9,0,.4.33.75,1,1l1.06.44c1.53.63,2.28,1.53,2.28,2.71a2.55,2.55,0,0,1-1,2.17,4.07,4.07,0,0,1-2.51.76,5.18,5.18,0,0,1-3.7-1.49l1.09-1.48a4.22,4.22,0,0,0,2.7,1.16c.93,0,1.39-.32,1.39-.95,0-.44-.39-.82-1.14-1.16l-1.09-.47c-1.39-.62-2.07-1.48-2.07-2.58a2.49,2.49,0,0,1,1-2.06,3.74,3.74,0,0,1,2.34-.77,5.21,5.21,0,0,1,3.63,1.35Z"/><path class="cls-5" d="M237.69,226.73H235.6l1.19-7.53h-1.4l.28-1.85h1.41l.28-1.75a3.73,3.73,0,0,1,3.88-3.31,2.75,2.75,0,0,1,1.91.65l-1.07,1.5a1.82,1.82,0,0,0-1-.28,1.84,1.84,0,0,0-1.71,1.7l-.24,1.49h2.31l-.28,1.85h-2.32Z"/><path class="cls-5" d="M243,225.67a4.31,4.31,0,0,1-1.32-3.26,5,5,0,0,1,1.55-3.74,5.14,5.14,0,0,1,3.77-1.53,4.62,4.62,0,0,1,3.34,1.28,4.29,4.29,0,0,1,1.33,3.25,5.06,5.06,0,0,1-1.56,3.76,5.27,5.27,0,0,1-3.79,1.51A4.57,4.57,0,0,1,243,225.67Zm5.71-1.56a3.28,3.28,0,0,0,.86-2.32,2.74,2.74,0,0,0-.76-2,2.59,2.59,0,0,0-2-.79,2.82,2.82,0,0,0-2.21,1,3.4,3.4,0,0,0-.88,2.34,2.54,2.54,0,0,0,2.71,2.72A2.91,2.91,0,0,0,248.67,224.11Z"/><path class="cls-5" d="M259.14,219.2a1.45,1.45,0,0,0-.55-.08,2.71,2.71,0,0,0-2.84,2.48l-.81,5.13h-2.09l1.48-9.38h1.86l-.13,1.05a3.68,3.68,0,0,1,2.74-1.17,1.53,1.53,0,0,1,.63.1Z"/><path class="cls-5" d="M265.94,218.67a4.73,4.73,0,0,1,3.59-1.51,3.59,3.59,0,0,1,3.29,1.65l.28-1.46H275l-1.39,8.8a4.77,4.77,0,0,1-5.13,4.44A7.86,7.86,0,0,1,264,229l.93-1.6a5.83,5.83,0,0,0,3.65,1.3,2.84,2.84,0,0,0,3-2.65l.09-.51a3.93,3.93,0,0,1-2.88,1.14,4,4,0,0,1-3-1.23,4.43,4.43,0,0,1-1.16-3.14A5.14,5.14,0,0,1,265.94,218.67ZM271.4,224a3.34,3.34,0,0,0,.82-2.28,2.46,2.46,0,0,0-2.56-2.67,2.78,2.78,0,0,0-2.18.92,3.3,3.3,0,0,0-.83,2.26,2.53,2.53,0,0,0,2.6,2.69A2.71,2.71,0,0,0,271.4,224Z"/><path class="cls-5" d="M282.48,219.2a1.37,1.37,0,0,0-.54-.08,2.72,2.72,0,0,0-2.85,2.48l-.81,5.13h-2.09l1.48-9.38h1.86l-.12,1.05a3.67,3.67,0,0,1,2.74-1.17,1.6,1.6,0,0,1,.63.1Z"/><path class="cls-5" d="M284.36,225.73a4.29,4.29,0,0,1-1.3-3.23,5.28,5.28,0,0,1,1.51-3.8,5,5,0,0,1,3.71-1.56,4,4,0,0,1,3,1.18,4.08,4.08,0,0,1,1.16,3,5.49,5.49,0,0,1-.18,1.4h-7.13a2.51,2.51,0,0,0,2.69,2.35,4.77,4.77,0,0,0,2.74-1l1,1.32a5.38,5.38,0,0,1-3.92,1.49A4.69,4.69,0,0,1,284.36,225.73Zm6-4.46v-.2a2.12,2.12,0,0,0-2.25-2.12,2.94,2.94,0,0,0-2.89,2.32Z"/><path class="cls-5" d="M299.48,226.73l.06-.83a3.61,3.61,0,0,1-2.62,1,3.83,3.83,0,0,1-2.37-.74,2.48,2.48,0,0,1-1-2.12,2.66,2.66,0,0,1,1.2-2.27,4.66,4.66,0,0,1,2.75-.84,3.23,3.23,0,0,1,2.41.91l.1-.65a5.08,5.08,0,0,0,.09-.79c0-1-.59-1.44-1.79-1.44a5.82,5.82,0,0,0-2.86.81l-.58-1.61a7.71,7.71,0,0,1,3.71-1,4,4,0,0,1,2.79.86,2.66,2.66,0,0,1,.84,2,6.47,6.47,0,0,1-.12,1.21l-.86,5.5Zm.14-2.76,0-.17c0-.73-.84-1.36-1.88-1.36a2.71,2.71,0,0,0-1.48.42,1.3,1.3,0,0,0-.65,1.13c0,.89.76,1.37,1.82,1.37A2,2,0,0,0,299.62,224Z"/><path class="cls-5" d="M305.47,226.27a2.18,2.18,0,0,1-.91-2,5.39,5.39,0,0,1,.07-.78l.69-4.33h-1.55l.28-1.79.4,0c1-.05,1.3-.4,1.5-1.46l.19-1.07h1.95l-.4,2.51h2.65l-.28,1.83h-2.65l-.65,4.16a2.4,2.4,0,0,0-.06.47c0,.86.53,1.2,1.74,1.2h.72l-.28,1.72a4,4,0,0,1-1.11.12A4.25,4.25,0,0,1,305.47,226.27Z"/><path class="cls-5" d="M317.1,226.27a2.18,2.18,0,0,1-.91-2,5.39,5.39,0,0,1,.07-.78l.68-4.33H315.4l.28-1.79.4,0c1-.05,1.3-.4,1.5-1.46l.19-1.07h2l-.4,2.51H322l-.28,1.83H319l-.65,4.16a3.28,3.28,0,0,0-.05.47c0,.86.53,1.2,1.74,1.2h.72l-.28,1.72a4,4,0,0,1-1.11.12A4.25,4.25,0,0,1,317.1,226.27Z"/><path class="cls-5" d="M328.2,226.73l.05-.83a3.61,3.61,0,0,1-2.61,1,3.83,3.83,0,0,1-2.37-.74,2.48,2.48,0,0,1-1-2.12,2.66,2.66,0,0,1,1.2-2.27,4.66,4.66,0,0,1,2.75-.84,3.27,3.27,0,0,1,2.41.91l.1-.65a5.08,5.08,0,0,0,.09-.79c0-1-.6-1.44-1.79-1.44a5.82,5.82,0,0,0-2.86.81l-.58-1.61a7.67,7.67,0,0,1,3.7-1,4,4,0,0,1,2.8.86,2.66,2.66,0,0,1,.84,2,7.44,7.44,0,0,1-.12,1.21l-.86,5.5Zm.14-2.76,0-.17c0-.73-.85-1.36-1.88-1.36a2.69,2.69,0,0,0-1.48.42,1.3,1.3,0,0,0-.65,1.13c0,.89.76,1.37,1.81,1.37A2,2,0,0,0,328.34,224Z"/><path class="cls-5" d="M332.56,226.73l2.25-14.24h2.09l-2.25,14.24Z"/><path class="cls-5" d="M338.66,225.73a4.29,4.29,0,0,1-1.3-3.23,5.28,5.28,0,0,1,1.51-3.8,5,5,0,0,1,3.7-1.56,4,4,0,0,1,4.18,4.2,5.48,5.48,0,0,1-.17,1.4h-7.13a2.51,2.51,0,0,0,2.68,2.35,4.75,4.75,0,0,0,2.74-1l1,1.32a5.35,5.35,0,0,1-3.91,1.49A4.68,4.68,0,0,1,338.66,225.73Zm6-4.46v-.2a2.12,2.12,0,0,0-2.25-2.12,3,3,0,0,0-2.9,2.32Z"/><path class="cls-5" d="M349.42,217.35h1.87l-.07,1a3.76,3.76,0,0,1,2.73-1.14,3.09,3.09,0,0,1,2.3.89,3.15,3.15,0,0,1,.9,2.34,5.91,5.91,0,0,1-.11,1l-.82,5.31h-2.09l.81-5.2a3.68,3.68,0,0,0,.07-.7,1.66,1.66,0,0,0-1.79-1.79,2.18,2.18,0,0,0-2.29,2l-.89,5.67H348Z"/><path class="cls-5" d="M360.37,226.27a2.16,2.16,0,0,1-.92-2,5.39,5.39,0,0,1,.07-.78l.69-4.33h-1.55l.28-1.79.41,0c1-.05,1.3-.4,1.49-1.46l.19-1.07h2l-.4,2.51h2.65l-.28,1.83H362.3l-.65,4.16a2.4,2.4,0,0,0-.06.47c0,.86.53,1.2,1.74,1.2h.72l-.28,1.72a3.93,3.93,0,0,1-1.1.12A4.2,4.2,0,0,1,360.37,226.27Z"/><path class="cls-5" d="M371.68,220a4.45,4.45,0,0,0-2.58-1c-.71,0-1.23.35-1.23.9,0,.4.33.75,1,1l1.05.44c1.53.63,2.28,1.53,2.28,2.71a2.57,2.57,0,0,1-1,2.17,4.11,4.11,0,0,1-2.51.76,5.2,5.2,0,0,1-3.71-1.49l1.09-1.48a4.22,4.22,0,0,0,2.7,1.16c.93,0,1.39-.32,1.39-.95,0-.44-.39-.82-1.14-1.16l-1.09-.47c-1.39-.62-2.07-1.48-2.07-2.58a2.49,2.49,0,0,1,1-2.06,3.74,3.74,0,0,1,2.34-.77,5.21,5.21,0,0,1,3.63,1.35Z"/><path class="cls-5" d="M374.12,226.5a1.56,1.56,0,0,1,0-2.13,1.54,1.54,0,0,1,2.13,0,1.51,1.51,0,0,1-2.13,2.13Zm7.48-1.07a1.5,1.5,0,1,1-1.49-1.49A1.47,1.47,0,0,1,381.6,225.43Zm2.34,1.07a1.51,1.51,0,0,1,2.14-2.13,1.51,1.51,0,0,1-2.14,2.13Z"/></g></g></svg>